# xmcd
#
# Track frame offsets:
# 150
# 14863
# 32325
# 47700
# 70722
# 91418
# 115715
# 131875
# 146964
# 176667
# 193853
# 207870
#
# Disc length: 2967 seconds
#
#
# Revision: 0
# Processed by: cddbd v1.5.1PL2 Copyright (c) Steve Scherf et al.
# Submitted via: FreeRIP 2.945 
#
DISCID=b20b950c
DTITLE=the giants - big bad and beautiful
DYEAR=1999
DGENRE=Blues
TTITLE0=01nature of the beast
TTITLE1=02 six second man
TTITLE2=03 blood from a stone
TTITLE3=04 freedom road
TTITLE4=05 big bad and beautiful
TTITLE5=06 motocycle man
TTITLE6=07 solitary drinking blues
TTITLE7=08 lone rider
TTITLE8=09 all night boogie
TTITLE9=10 mistress of the dark
TTITLE10=11short dress
TTITLE11=12 highway fever
EXTD=
EXTT0=
EXTT1=
EXTT2=
EXTT3=
EXTT4=
EXTT5=
EXTT6=
EXTT7=
EXTT8=
EXTT9=
EXTT10=
EXTT11=
PLAYORDER=
